<svg xmlns="http://www.w3.org/2000/svg" viewBox="0 0 24 24" aria-hidden="true">
  <g fill="#e2e8f0">
    <path
      d="M12,7c-2.756836,0-5,2.243164-5,5s2.243164,5,5,5,5-2.243164,5-5S14.756836,7,12,7z M12,15c-1.654297,0-3-1.345703-3-3s1.345703-3,3-3,3,1.345703,3,3S13.654297,15,12,15z"
    />
    <path
      d="M22,11h-1.059021C20.478088,6.835754,17.164673,3.521912,13,3.05896V2c0-0.552246-0.447266-1-1-1s-1,0.447754-1,1v1.05896C6.835327,3.521912,3.521912,6.835754,3.059021,11H2c-0.552734,0-1,0.447754-1,1s0.447266,1,1,1h1.059021C3.521912,17.164246,6.835327,20.478088,11,20.94104V22c0,0.552246,0.447266,1,1,1s1-0.447754,1-1v-1.05896c4.164673-0.462952,7.478088-3.776794,7.940979-7.94104H22c0.552734,0,1-0.447754,1-1S22.552734,11,22,11z M12,19c-3.859375,0-7-3.140137-7-7s3.140625-7,7-7,7,3.140137,7,7S15.859375,19,12,19z"
    />
  </g>
</svg>
