<?xml version="1.0" encoding="UTF-8"?>
<svg viewBox="0 0 32 40" width="32" height="40" xmlns="http://www.w3.org/2000/svg">
  <!-- Cámara — Registro subterráneo -->
  <path d="M16,2C10.48,2,6,6.48,6,12c0,7.5,10,18,10,18s10-10.5,10-18C26,6.48,21.52,2,16,2Z" fill="#D3D1C7" stroke="#5F5E5A" stroke-width="0.8"/>
  <circle cx="16" cy="11" r="7" fill="white" opacity="0.93"/>
  <rect x="10" y="7.5" width="12" height="8" rx="1.5" fill="none" stroke="#444441" stroke-width="1.2"/>
<line x1="16" y1="7.5" x2="16" y2="15.5" stroke="#444441" stroke-width="0.8" opacity="0.45"/>
<line x1="10" y1="11.5" x2="22" y2="11.5" stroke="#444441" stroke-width="0.8" opacity="0.45"/>
<rect x="11.5" y="8.8" width="3.5" height="2.5" rx="0.5" fill="#444441" opacity="0.3"/>
<rect x="17" y="8.8" width="3.5" height="2.5" rx="0.5" fill="#444441" opacity="0.3"/>
<rect x="11.5" y="12.3" width="3.5" height="2.5" rx="0.5" fill="#444441" opacity="0.3"/>
<rect x="17" y="12.3" width="3.5" height="2.5" rx="0.5" fill="#444441" opacity="0.3"/>
<line x1="12.5" y1="15.5" x2="11" y2="17.5" stroke="#444441" stroke-width="1.1" stroke-linecap="round" opacity="0.5"/>
<line x1="19.5" y1="15.5" x2="21" y2="17.5" stroke="#444441" stroke-width="1.1" stroke-linecap="round" opacity="0.5"/>
</svg>