<?xml version="1.0" encoding="UTF-8"?>
<svg viewBox="0 0 32 40" width="32" height="40" xmlns="http://www.w3.org/2000/svg">
  <!-- Cierre / Mufa — Caja de empalme FO -->
  <path d="M16,2C10.48,2,6,6.48,6,12c0,7.5,10,18,10,18s10-10.5,10-18C26,6.48,21.52,2,16,2Z" fill="#FAC775" stroke="#854F0B" stroke-width="0.8"/>
  <circle cx="16" cy="11" r="7" fill="white" opacity="0.93"/>
  <rect x="11" y="8.5" width="10" height="5" fill="#EF9F27" opacity="0.5"/>
<line x1="11" y1="8.5" x2="21" y2="8.5" stroke="#633806" stroke-width="1"/>
<line x1="11" y1="13.5" x2="21" y2="13.5" stroke="#633806" stroke-width="1"/>
<ellipse cx="11" cy="11" rx="1.8" ry="2.5" fill="#EF9F27" stroke="#633806" stroke-width="1"/>
<ellipse cx="21" cy="11" rx="1.8" ry="2.5" fill="#EF9F27" stroke="#633806" stroke-width="1"/>
<line x1="14.5" y1="8.5" x2="14.5" y2="13.5" stroke="#633806" stroke-width="0.8" opacity="0.55"/>
<line x1="17.5" y1="8.5" x2="17.5" y2="13.5" stroke="#633806" stroke-width="0.8" opacity="0.55"/>
<line x1="9" y1="11" x2="11" y2="11" stroke="#633806" stroke-width="1.5" stroke-linecap="round"/>
<line x1="21" y1="11" x2="23" y2="11" stroke="#633806" stroke-width="1.5" stroke-linecap="round"/>
</svg>