<?xml version="1.0" encoding="UTF-8"?>
<svg viewBox="0 0 32 40" width="32" height="40" xmlns="http://www.w3.org/2000/svg">
  <!-- Edificio corp. — Red corporativa -->
  <path d="M16,2C10.48,2,6,6.48,6,12c0,7.5,10,18,10,18s10-10.5,10-18C26,6.48,21.52,2,16,2Z" fill="#CECBF6" stroke="#534AB7" stroke-width="0.8"/>
  <circle cx="16" cy="11" r="7" fill="white" opacity="0.93"/>
  <rect x="11" y="6" width="10" height="11" rx="0.8" fill="none" stroke="#3C3489" stroke-width="1.2"/>
<rect x="12.2" y="7.3" width="2.5" height="2" rx="0.4" fill="#3C3489" opacity="0.6"/>
<rect x="15.2" y="7.3" width="2.5" height="2" rx="0.4" fill="#3C3489" opacity="0.6"/>
<rect x="18.2" y="7.3" width="2.5" height="2" rx="0.4" fill="#3C3489" opacity="0.6"/>
<rect x="12.2" y="10.3" width="2.5" height="2" rx="0.4" fill="#3C3489" opacity="0.6"/>
<rect x="15.2" y="10.3" width="2.5" height="2" rx="0.4" fill="#3C3489" opacity="0.6"/>
<rect x="18.2" y="10.3" width="2.5" height="2" rx="0.4" fill="#3C3489" opacity="0.6"/>
<rect x="14.5" y="13.5" width="3" height="3.5" rx="0.5" fill="#3C3489" opacity="0.45"/>
</svg>