<svg xmlns="http://www.w3.org/2000/svg" viewBox="0 0 24 24" fill="none" aria-hidden="true">
  <defs>
    <linearGradient id="gpsUltraG" x1="2" y1="2" x2="22" y2="22" gradientUnits="userSpaceOnUse">
      <stop stop-color="#22d3ee"/>
      <stop offset="0.5" stop-color="#6366f1"/>
      <stop offset="1" stop-color="#c084fc"/>
    </linearGradient>
    <linearGradient id="gpsUltraPin" x1="12" y1="5.5" x2="12" y2="17" gradientUnits="userSpaceOnUse">
      <stop stop-color="#f8fafc"/>
      <stop offset="1" stop-color="#94a3b8"/>
    </linearGradient>
  </defs>
  <!-- Anillo exterior: seńal / cobertura -->
  <circle
    cx="12"
    cy="12"
    r="9.25"
    stroke="url(#gpsUltraG)"
    stroke-width="1.2"
    stroke-linecap="round"
    stroke-dasharray="5.2 3.4"
    opacity="0.95"
    transform="rotate(-18 12 12)"
  />
  <circle cx="12" cy="12" r="6.85" stroke="url(#gpsUltraG)" stroke-width="0.55" opacity="0.35"/>
  <!-- Cruces de mira -->
  <path d="M12 4.2v1.9M12 17.9v1.9M4.2 12h1.9M17.9 12h1.9" stroke="url(#gpsUltraG)" stroke-width="0.85" stroke-linecap="round" opacity="0.45"/>
  <!-- Pin -->
  <path
    d="M12 5.85c-1.52 0-2.75 1.26-2.75 2.82 0 2.1 2.75 5.2 2.75 5.2s2.75-3.1 2.75-5.2c0-1.56-1.23-2.82-2.75-2.82z"
    fill="url(#gpsUltraPin)"
    stroke="url(#gpsUltraG)"
    stroke-width="1.05"
    stroke-linejoin="round"
  />
  <circle cx="12" cy="8.65" r="1.25" fill="url(#gpsUltraG)"/>
  <circle cx="12" cy="8.65" r="0.45" fill="#0f172a" opacity="0.5"/>
  <!-- Satélites decorativos -->
  <circle cx="20" cy="5" r="1.1" fill="url(#gpsUltraG)" opacity="0.85"/>
  <circle cx="4" cy="19" r="0.9" fill="url(#gpsUltraG)" opacity="0.55"/>
</svg>
