<svg xmlns="http://www.w3.org/2000/svg" width="24" height="24" viewBox="0 0 24 24" fill="none" aria-hidden="true">
  <path fill="none" d="M12.83 2.18a2 2 0 0 0-1.66 0L2.44 6.52a1 1 0 0 0 0 1.83l8.73 5.18a2 2 0 0 0 1.66 0l8.73-5.2a1 1 0 0 0 0-1.83Z" stroke="#7dd3fc" stroke-width="1.75" stroke-linejoin="round"/>
  <path fill="none" d="m2.44 12 9.18 5.18a2 2 0 0 0 1.66 0L22.44 12" stroke="#7dd3fc" stroke-width="1.75" stroke-linecap="round" stroke-linejoin="round"/>
  <path fill="none" d="m2.44 17 9.18 5.18a2 2 0 0 0 1.66 0L22.44 17" stroke="#7dd3fc" stroke-width="1.75" stroke-linecap="round" stroke-linejoin="round"/>
</svg>
