<?xml version="1.0" encoding="UTF-8"?>
<svg viewBox="0 0 88 88" fill="none" xmlns="http://www.w3.org/2000/svg"><defs><linearGradient id="ftth-central-gcent" x1="0%" y1="0%" x2="100%" y2="100%"><stop offset="0%" stop-color="#818cf8"></stop><stop offset="100%" stop-color="#4f46e5"></stop></linearGradient><linearGradient id="ftth-central-gscent" x1="0%" y1="0%" x2="0%" y2="100%"><stop offset="0%" stop-color="white" stop-opacity="0.25"></stop><stop offset="100%" stop-color="white" stop-opacity="0"></stop></linearGradient><filter id="ftth-central-fcent" x="-20%" y="-20%" width="140%" height="140%"><feDropShadow dx="0" dy="4" stdDeviation="6" flood-color="#4f46e5" flood-opacity="0.45"></feDropShadow></filter></defs><rect x="8" y="8" width="72" height="72" rx="22" fill="url(#ftth-central-gcent)" filter="url(#ftth-central-fcent)"></rect><rect x="8" y="8" width="72" height="28" rx="22" fill="url(#ftth-central-gscent)"></rect><g><rect x="38" y="20" width="12" height="30" rx="3" fill="white" fill-opacity="0.9"></rect><rect x="30" y="34" width="28" height="20" rx="3" fill="white" fill-opacity="0.7"></rect><rect x="24" y="44" width="40" height="14" rx="3" fill="white" fill-opacity="0.85"></rect><line x1="44" y1="20" x2="44" y2="12" stroke="white" stroke-width="3" stroke-linecap="round"></line><circle cx="44" cy="11" r="3.5" fill="white"></circle><path d="M36 15 Q44 9 52 15" fill="none" stroke="white" stroke-width="2" stroke-opacity="0.6" stroke-linecap="round"></path><path d="M32 19 Q44 11 56 19" fill="none" stroke="white" stroke-width="1.5" stroke-opacity="0.35" stroke-linecap="round"></path><rect x="32" y="48" width="5" height="4" rx="1" fill="#1e1b4b" fill-opacity="0.5"></rect><rect x="38" y="48" width="5" height="4" rx="1" fill="#1e1b4b" fill-opacity="0.5"></rect><rect x="46" y="48" width="5" height="4" rx="1" fill="#1e1b4b" fill-opacity="0.5"></rect><rect x="52" y="48" width="5" height="4" rx="1" fill="#1e1b4b" fill-opacity="0.5"></rect><rect x="34" y="56" width="5" height="4" rx="1" fill="#1e1b4b" fill-opacity="0.5"></rect><rect x="42" y="56" width="5" height="4" rx="1" fill="#1e1b4b" fill-opacity="0.5"></rect><rect x="50" y="56" width="5" height="4" rx="1" fill="#1e1b4b" fill-opacity="0.5"></rect></g></svg>
