<?xml version="1.0" encoding="UTF-8"?>
<svg viewBox="0 0 88 88" fill="none" xmlns="http://www.w3.org/2000/svg"><defs><linearGradient id="ftth-cliente-corporativo-gcorp" x1="0%" y1="0%" x2="100%" y2="100%"><stop offset="0%" stop-color="#60a5fa"></stop><stop offset="100%" stop-color="#2563eb"></stop></linearGradient><linearGradient id="ftth-cliente-corporativo-gscorp" x1="0%" y1="0%" x2="0%" y2="100%"><stop offset="0%" stop-color="white" stop-opacity="0.25"></stop><stop offset="100%" stop-color="white" stop-opacity="0"></stop></linearGradient><filter id="ftth-cliente-corporativo-fcorp" x="-20%" y="-20%" width="140%" height="140%"><feDropShadow dx="0" dy="4" stdDeviation="6" flood-color="#2563eb" flood-opacity="0.45"></feDropShadow></filter></defs><rect x="8" y="8" width="72" height="72" rx="22" fill="url(#ftth-cliente-corporativo-gcorp)" filter="url(#ftth-cliente-corporativo-fcorp)"></rect><rect x="8" y="8" width="72" height="28" rx="22" fill="url(#ftth-cliente-corporativo-gscorp)"></rect><g><rect x="20" y="30" width="48" height="36" rx="3" fill="white" fill-opacity="0.85"></rect><rect x="24" y="34" width="7" height="6" rx="1" fill="#2563eb" fill-opacity="0.5"></rect><rect x="35" y="34" width="7" height="6" rx="1" fill="#2563eb" fill-opacity="0.5"></rect><rect x="46" y="34" width="7" height="6" rx="1" fill="#2563eb" fill-opacity="0.5"></rect><rect x="57" y="34" width="7" height="6" rx="1" fill="#2563eb" fill-opacity="0.5"></rect><rect x="24" y="43" width="7" height="6" rx="1" fill="#2563eb" fill-opacity="0.25"></rect><rect x="35" y="43" width="7" height="6" rx="1" fill="#2563eb" fill-opacity="0.25"></rect><rect x="46" y="43" width="7" height="6" rx="1" fill="#2563eb" fill-opacity="0.25"></rect><rect x="57" y="43" width="7" height="6" rx="1" fill="#2563eb" fill-opacity="0.25"></rect><rect x="24" y="52" width="7" height="6" rx="1" fill="#2563eb" fill-opacity="0.25"></rect><rect x="35" y="52" width="7" height="6" rx="1" fill="#2563eb" fill-opacity="0.25"></rect><rect x="46" y="52" width="7" height="6" rx="1" fill="#2563eb" fill-opacity="0.25"></rect><rect x="57" y="52" width="7" height="6" rx="1" fill="#2563eb" fill-opacity="0.25"></rect><rect x="30" y="22" width="28" height="10" rx="2" fill="white" fill-opacity="0.7"></rect><rect x="38" y="16" width="12" height="8" rx="2" fill="white" fill-opacity="0.55"></rect><rect x="38" y="54" width="12" height="12" rx="1" fill="#1e3a8a" fill-opacity="0.5"></rect><path d="M36 13 Q44 8 52 13" fill="none" stroke="white" stroke-width="2.5" stroke-linecap="round" stroke-opacity="0.7"></path><path d="M39 17 Q44 14 49 17" fill="none" stroke="white" stroke-width="2.5" stroke-linecap="round"></path><circle cx="44" cy="20" r="2.5" fill="white"></circle></g></svg>
