<?xml version="1.0" encoding="UTF-8"?>
<svg viewBox="0 0 88 88" fill="none" xmlns="http://www.w3.org/2000/svg"><defs><linearGradient id="ftth-cliente-gclie" x1="0%" y1="0%" x2="100%" y2="100%"><stop offset="0%" stop-color="#a3e635"></stop><stop offset="100%" stop-color="#65a30d"></stop></linearGradient><linearGradient id="ftth-cliente-gsclie" x1="0%" y1="0%" x2="0%" y2="100%"><stop offset="0%" stop-color="white" stop-opacity="0.25"></stop><stop offset="100%" stop-color="white" stop-opacity="0"></stop></linearGradient><filter id="ftth-cliente-fclie" x="-20%" y="-20%" width="140%" height="140%"><feDropShadow dx="0" dy="4" stdDeviation="6" flood-color="#65a30d" flood-opacity="0.45"></feDropShadow></filter></defs><rect x="8" y="8" width="72" height="72" rx="22" fill="url(#ftth-cliente-gclie)" filter="url(#ftth-cliente-fclie)"></rect><rect x="8" y="8" width="72" height="28" rx="22" fill="url(#ftth-cliente-gsclie)"></rect><g><polygon points="44,20 20,42 68,42" fill="white" fill-opacity="0.9"></polygon><rect x="24" y="40" width="40" height="26" rx="3" fill="white" fill-opacity="0.75"></rect><rect x="38" y="52" width="12" height="14" rx="2" fill="#1a2e05" fill-opacity="0.5"></rect><rect x="26" y="45" width="10" height="8" rx="1.5" fill="#1a2e05" fill-opacity="0.35"></rect><rect x="52" y="45" width="10" height="8" rx="1.5" fill="#1a2e05" fill-opacity="0.35"></rect><path d="M37 16 Q44 11 51 16" fill="none" stroke="white" stroke-width="2.5" stroke-linecap="round" stroke-opacity="0.8"></path><path d="M40 20 Q44 17 48 20" fill="none" stroke="white" stroke-width="2.5" stroke-linecap="round"></path><circle cx="62" cy="62" r="10" fill="#34d399" stroke="white" stroke-width="2.5"></circle><path d="M57 62 L61 66 L68 57" stroke="white" stroke-width="2.5" stroke-linecap="round" stroke-linejoin="round" fill="none"></path></g></svg>
