<?xml version="1.0" encoding="UTF-8"?>
<svg viewBox="0 0 88 88" fill="none" xmlns="http://www.w3.org/2000/svg"><defs><linearGradient id="ftth-gps-ggps" x1="0%" y1="0%" x2="100%" y2="100%"><stop offset="0%" stop-color="#2dd4bf"></stop><stop offset="100%" stop-color="#0d9488"></stop></linearGradient><linearGradient id="ftth-gps-gsgps" x1="0%" y1="0%" x2="0%" y2="100%"><stop offset="0%" stop-color="white" stop-opacity="0.25"></stop><stop offset="100%" stop-color="white" stop-opacity="0"></stop></linearGradient><filter id="ftth-gps-fgps" x="-20%" y="-20%" width="140%" height="140%"><feDropShadow dx="0" dy="4" stdDeviation="6" flood-color="#0d9488" flood-opacity="0.45"></feDropShadow></filter></defs><circle cx="44" cy="44" r="36" fill="url(#ftth-gps-ggps)" filter="url(#ftth-gps-fgps)"></circle><ellipse cx="36" cy="30" rx="16" ry="10" fill="url(#ftth-gps-gsgps)"></ellipse><g><path d="M44 18 C34 18 26 26 26 36 C26 48 44 66 44 66 C44 66 62 48 62 36 C62 26 54 18 44 18 Z" fill="white" fill-opacity="0.9"></path><circle cx="44" cy="36" r="10" fill="#0d9488"></circle><circle cx="44" cy="36" r="5" fill="white"></circle><polygon points="44,30 48,42 44,39 40,42" fill="#0d9488"></polygon><ellipse cx="44" cy="68" rx="8" ry="3" fill="#134e4a" fill-opacity="0.4"></ellipse></g></svg>
