<?xml version="1.0" encoding="UTF-8"?>
<svg viewBox="0 0 88 88" fill="none" xmlns="http://www.w3.org/2000/svg"><defs><linearGradient id="ftth-mantenimiento-gmant" x1="0%" y1="0%" x2="100%" y2="100%"><stop offset="0%" stop-color="#fbbf24"></stop><stop offset="100%" stop-color="#d97706"></stop></linearGradient><linearGradient id="ftth-mantenimiento-gsmant" x1="0%" y1="0%" x2="0%" y2="100%"><stop offset="0%" stop-color="white" stop-opacity="0.25"></stop><stop offset="100%" stop-color="white" stop-opacity="0"></stop></linearGradient><filter id="ftth-mantenimiento-fmant" x="-20%" y="-20%" width="140%" height="140%"><feDropShadow dx="0" dy="4" stdDeviation="6" flood-color="#d97706" flood-opacity="0.45"></feDropShadow></filter></defs><circle cx="44" cy="44" r="36" fill="url(#ftth-mantenimiento-gmant)" filter="url(#ftth-mantenimiento-fmant)"></circle><ellipse cx="36" cy="30" rx="16" ry="10" fill="url(#ftth-mantenimiento-gsmant)"></ellipse><g><path d="M28 48 Q28 26 44 24 Q60 26 60 48 Z" fill="white" fill-opacity="0.92"></path><rect x="22" y="46" width="44" height="8" rx="4" fill="white" fill-opacity="0.85"></rect><g transform="translate(44,44) rotate(-40) translate(-44,-44)"><rect x="40" y="50" width="8" height="20" rx="4" fill="white" fill-opacity="0.7"></rect><path d="M36 50 Q44 42 52 50" fill="white" fill-opacity="0.7"></path></g><g transform="translate(44,44) rotate(40) translate(-44,-44)"><rect x="41" y="52" width="6" height="18" rx="3" fill="white" fill-opacity="0.6"></rect><polygon points="41,52 47,52 44,46" fill="white" fill-opacity="0.8"></polygon></g><path d="M32 38 Q38 30 44 30" fill="none" stroke="white" stroke-width="2.5" stroke-opacity="0.4" stroke-linecap="round"></path></g></svg>
