<?xml version="1.0" encoding="UTF-8"?>
<svg viewBox="0 0 88 88" fill="none" xmlns="http://www.w3.org/2000/svg"><defs><linearGradient id="ftth-nap-lleno-gnapf" x1="0%" y1="0%" x2="100%" y2="100%"><stop offset="0%" stop-color="#fb7185"></stop><stop offset="100%" stop-color="#e11d48"></stop></linearGradient><linearGradient id="ftth-nap-lleno-gsnapf" x1="0%" y1="0%" x2="0%" y2="100%"><stop offset="0%" stop-color="white" stop-opacity="0.25"></stop><stop offset="100%" stop-color="white" stop-opacity="0"></stop></linearGradient><filter id="ftth-nap-lleno-fnapf" x="-20%" y="-20%" width="140%" height="140%"><feDropShadow dx="0" dy="4" stdDeviation="6" flood-color="#e11d48" flood-opacity="0.45"></feDropShadow></filter></defs><rect x="8" y="8" width="72" height="72" rx="22" fill="url(#ftth-nap-lleno-gnapf)" filter="url(#ftth-nap-lleno-fnapf)"></rect><rect x="8" y="8" width="72" height="28" rx="22" fill="url(#ftth-nap-lleno-gsnapf)"></rect><g><rect x="18" y="28" width="48" height="34" rx="5" fill="white" fill-opacity="0.85"></rect><rect x="22" y="32" width="8" height="8" rx="2" fill="#e11d48" fill-opacity="0.75"></rect><rect x="33" y="32" width="8" height="8" rx="2" fill="#e11d48" fill-opacity="0.75"></rect><rect x="44" y="32" width="8" height="8" rx="2" fill="#e11d48" fill-opacity="0.75"></rect><rect x="55" y="32" width="8" height="8" rx="2" fill="#e11d48" fill-opacity="0.75"></rect><rect x="22" y="44" width="8" height="8" rx="2" fill="#e11d48" fill-opacity="0.75"></rect><rect x="33" y="44" width="8" height="8" rx="2" fill="#e11d48" fill-opacity="0.75"></rect><rect x="44" y="44" width="8" height="8" rx="2" fill="#e11d48" fill-opacity="0.75"></rect><rect x="55" y="44" width="8" height="8" rx="2" fill="#e11d48" fill-opacity="0.75"></rect><rect x="26" y="60" width="5" height="8" rx="2" fill="white" fill-opacity="0.5"></rect><rect x="34" y="60" width="5" height="8" rx="2" fill="white" fill-opacity="0.5"></rect><rect x="42" y="60" width="5" height="8" rx="2" fill="white" fill-opacity="0.5"></rect><rect x="50" y="60" width="5" height="8" rx="2" fill="white" fill-opacity="0.5"></rect><rect x="58" y="60" width="5" height="8" rx="2" fill="white" fill-opacity="0.5"></rect><circle cx="44" cy="44" r="13" fill="#e11d48"></circle><path d="M39 39 L49 49 M49 39 L39 49" stroke="white" stroke-width="3.5" stroke-linecap="round"></path></g></svg>
