<?xml version="1.0" encoding="UTF-8"?>
<svg viewBox="0 0 88 88" fill="none" xmlns="http://www.w3.org/2000/svg"><defs><linearGradient id="ftth-nap-libre-gnapl" x1="0%" y1="0%" x2="100%" y2="100%"><stop offset="0%" stop-color="#34d399"></stop><stop offset="100%" stop-color="#059669"></stop></linearGradient><linearGradient id="ftth-nap-libre-gsnapl" x1="0%" y1="0%" x2="0%" y2="100%"><stop offset="0%" stop-color="white" stop-opacity="0.25"></stop><stop offset="100%" stop-color="white" stop-opacity="0"></stop></linearGradient><filter id="ftth-nap-libre-fnapl" x="-20%" y="-20%" width="140%" height="140%"><feDropShadow dx="0" dy="4" stdDeviation="6" flood-color="#059669" flood-opacity="0.45"></feDropShadow></filter></defs><rect x="8" y="8" width="72" height="72" rx="22" fill="url(#ftth-nap-libre-gnapl)" filter="url(#ftth-nap-libre-fnapl)"></rect><rect x="8" y="8" width="72" height="28" rx="22" fill="url(#ftth-nap-libre-gsnapl)"></rect><g><rect x="18" y="28" width="48" height="34" rx="5" fill="white" fill-opacity="0.85"></rect><rect x="22" y="32" width="8" height="8" rx="2" fill="#064e3b" fill-opacity="0.35"></rect><rect x="33" y="32" width="8" height="8" rx="2" fill="#064e3b" fill-opacity="0.35"></rect><rect x="44" y="32" width="8" height="8" rx="2" fill="#064e3b" fill-opacity="0.35"></rect><rect x="55" y="32" width="8" height="8" rx="2" fill="#064e3b" fill-opacity="0.35"></rect><rect x="22" y="44" width="8" height="8" rx="2" fill="#064e3b" fill-opacity="0.35"></rect><rect x="33" y="44" width="8" height="8" rx="2" fill="#064e3b" fill-opacity="0.35"></rect><rect x="44" y="44" width="8" height="8" rx="2" fill="#064e3b" fill-opacity="0.35"></rect><rect x="55" y="44" width="8" height="8" rx="2" fill="#064e3b" fill-opacity="0.35"></rect><rect x="26" y="60" width="5" height="8" rx="2" fill="white" fill-opacity="0.5"></rect><rect x="34" y="60" width="5" height="8" rx="2" fill="white" fill-opacity="0.5"></rect><rect x="42" y="60" width="5" height="8" rx="2" fill="white" fill-opacity="0.5"></rect><rect x="50" y="60" width="5" height="8" rx="2" fill="white" fill-opacity="0.5"></rect><rect x="58" y="60" width="5" height="8" rx="2" fill="white" fill-opacity="0.5"></rect><circle cx="44" cy="44" r="13" fill="#059669"></circle><path d="M37 44 L42 49 L51 38" stroke="white" stroke-width="3.5" stroke-linecap="round" stroke-linejoin="round" fill="none"></path></g></svg>
