<?xml version="1.0" encoding="UTF-8"?>
<svg viewBox="0 0 88 88" fill="none" xmlns="http://www.w3.org/2000/svg"><defs><linearGradient id="ftth-nap-ocupado-gnapo" x1="0%" y1="0%" x2="100%" y2="100%"><stop offset="0%" stop-color="#fb923c"></stop><stop offset="100%" stop-color="#ea580c"></stop></linearGradient><linearGradient id="ftth-nap-ocupado-gsnapo" x1="0%" y1="0%" x2="0%" y2="100%"><stop offset="0%" stop-color="white" stop-opacity="0.25"></stop><stop offset="100%" stop-color="white" stop-opacity="0"></stop></linearGradient><filter id="ftth-nap-ocupado-fnapo" x="-20%" y="-20%" width="140%" height="140%"><feDropShadow dx="0" dy="4" stdDeviation="6" flood-color="#ea580c" flood-opacity="0.45"></feDropShadow></filter></defs><rect x="8" y="8" width="72" height="72" rx="22" fill="url(#ftth-nap-ocupado-gnapo)" filter="url(#ftth-nap-ocupado-fnapo)"></rect><rect x="8" y="8" width="72" height="28" rx="22" fill="url(#ftth-nap-ocupado-gsnapo)"></rect><g><rect x="18" y="28" width="48" height="34" rx="5" fill="white" fill-opacity="0.85"></rect><rect x="22" y="32" width="8" height="8" rx="2" fill="#ea580c" fill-opacity="0.8"></rect><rect x="33" y="32" width="8" height="8" rx="2" fill="#ea580c" fill-opacity="0.8"></rect><rect x="44" y="32" width="8" height="8" rx="2" fill="#ea580c" fill-opacity="0.8"></rect><rect x="55" y="32" width="8" height="8" rx="2" fill="#ea580c" fill-opacity="0.8"></rect><rect x="22" y="44" width="8" height="8" rx="2" fill="#ea580c" fill-opacity="0.8"></rect><rect x="33" y="44" width="8" height="8" rx="2" fill="#7c2d12" fill-opacity="0.25"></rect><rect x="44" y="44" width="8" height="8" rx="2" fill="#7c2d12" fill-opacity="0.25"></rect><rect x="55" y="44" width="8" height="8" rx="2" fill="#7c2d12" fill-opacity="0.25"></rect><rect x="26" y="60" width="5" height="8" rx="2" fill="white" fill-opacity="0.5"></rect><rect x="34" y="60" width="5" height="8" rx="2" fill="white" fill-opacity="0.5"></rect><rect x="42" y="60" width="5" height="8" rx="2" fill="white" fill-opacity="0.5"></rect><rect x="50" y="60" width="5" height="8" rx="2" fill="white" fill-opacity="0.5"></rect><rect x="58" y="60" width="5" height="8" rx="2" fill="white" fill-opacity="0.5"></rect><rect x="26" y="54" width="32" height="5" rx="2.5" fill="#7c2d12" fill-opacity="0.4"></rect><rect x="26" y="54" width="20" height="5" rx="2.5" fill="white" fill-opacity="0.5"></rect></g></svg>
